<?xml version="1.0" encoding="UTF-8" standalone="no"?>
<svg
   version="1.0"
   width="113.000000pt"
   height="113.000000pt"
   viewBox="0 0 113.000000 113.000000"
   preserveAspectRatio="xMidYMid meet"
   id="svg2"
   sodipodi:docname="kosztbhp.svg"
   xml:space="preserve"
   inkscape:version="1.3.2 (091e20e, 2023-11-25, custom)"
   xmlns:inkscape="http://www.inkscape.org/namespaces/inkscape"
   xmlns:sodipodi="http://sodipodi.sourceforge.net/DTD/sodipodi-0.dtd"
   xmlns="http://www.w3.org/2000/svg"
   xmlns:svg="http://www.w3.org/2000/svg"><defs
     id="defs2" /><sodipodi:namedview
     id="namedview2"
     pagecolor="#ffffff"
     bordercolor="#000000"
     borderopacity="0.25"
     inkscape:showpageshadow="2"
     inkscape:pageopacity="0.0"
     inkscape:pagecheckerboard="0"
     inkscape:deskcolor="#d1d1d1"
     inkscape:document-units="pt"
     inkscape:zoom="3.5245831"
     inkscape:cx="50.502426"
     inkscape:cy="75.328057"
     inkscape:window-width="1920"
     inkscape:window-height="991"
     inkscape:window-x="-9"
     inkscape:window-y="-9"
     inkscape:window-maximized="1"
     inkscape:current-layer="svg2" /><g
     transform="translate(0.000000,113.000000) scale(0.100000,-0.100000)"
     fill="#000000"
     stroke="none"
     id="g2"
     style="fill:#12304a;fill-opacity:1"><path
       d="M546 974 l-57 -79 148 -5 c160 -5 177 -11 208 -63 41 -68 -9 -159 -95 -173 -36 -6 -46 -14 -90 -78 l-50 -71 113 -3 c130 -3 174 9 231 64 62 60 81 107 81 204 0 97 -16 141 -75 200 -60 60 -100 73 -236 78 l-121 4 -57 -78z"
       id="path1"
       style="fill:#12304a;fill-opacity:1" /><path
       d="M130 541 l0 -493 46 68 c26 38 66 97 90 130 42 60 43 63 46 152 l3 90 125 -179 c69 -98 127 -179 130 -178 7 1 178 243 175 247 -2 2 -26 -13 -53 -33 l-51 -36 -40 58 c-22 32 -53 76 -69 98 -15 22 -108 155 -206 295 -98 140 -183 259 -187 265 -5 5 -9 -205 -9 -484z"
       id="path2"
       style="fill:#12304a;fill-opacity:1" /></g></svg>
