<?xml version="1.0" encoding="UTF-8" standalone="no"?>
<svg
   version="1.0"
   width="154.01389"
   height="90"
   viewBox="0 0 115.51042 67.500001"
   preserveAspectRatio="xMidYMid"
   id="svg7"
   sodipodi:docname="logo.svg"
   inkscape:version="1.3.2 (091e20e, 2023-11-25, custom)"
   xmlns:inkscape="http://www.inkscape.org/namespaces/inkscape"
   xmlns:sodipodi="http://sodipodi.sourceforge.net/DTD/sodipodi-0.dtd"
   xmlns="http://www.w3.org/2000/svg"
   xmlns:svg="http://www.w3.org/2000/svg">
  <defs
     id="defs7" />
  <sodipodi:namedview
     id="namedview7"
     pagecolor="#ffffff"
     bordercolor="#000000"
     borderopacity="0.25"
     inkscape:showpageshadow="2"
     inkscape:pageopacity="0.0"
     inkscape:pagecheckerboard="0"
     inkscape:deskcolor="#d1d1d1"
     inkscape:document-units="pt"
     inkscape:zoom="5.6568542"
     inkscape:cx="95.017474"
     inkscape:cy="60.369242"
     inkscape:window-width="1920"
     inkscape:window-height="991"
     inkscape:window-x="-9"
     inkscape:window-y="145"
     inkscape:window-maximized="1"
     inkscape:current-layer="g7" />
  <g
     transform="matrix(0.1,0,0,-0.1,-0.75687101,344.52984)"
     fill="#000000"
     stroke="none"
     id="g7"
     style="display:inline">
    <path
       d="m 1120.9938,2810.1912 h -25.8011 -25.8014 v 34.7324 34.7324 h 19.8472 19.8471 v 21.8319 21.8319 h -31.7554 c -32.5493,0 -35.5264,-0.5955 -45.053,-8.7328 -4.5649,-3.771 -4.5649,-3.9695 -4.5649,-68.0757 v -64.3046 l 5.5573,-4.7634 5.3587,-4.7632 62.1215,-0.1986 h 61.923 v 117.0981 117.0981 h -20.8393 -20.8397 c -0.4964,-58.2724 0,-70.9897 0,-196.4865 z"
       id="path1"
       style="display:inline;stroke-width:0.19847"
       inkscape:label="d"
       sodipodi:nodetypes="cccccccccscscccccccccc" />
    <path
       d="m 608.93784,2977.8993 v -28.7782 h 66.48789 66.4879 v -12.9008 -12.9005 H 708.1735 674.43338 v 5.9541 5.9541 h -32.74777 -32.74777 v -82.564 -82.3656 l 101.81579,0.5953 101.61733,0.5954 9.92356,5.7557 c 16.07618,9.3281 16.87006,9.9236 16.87006,12.5037 0,1.3893 0.79389,2.5802 1.78626,2.5802 0.99234,0 3.77095,4.1679 6.1526,9.1296 5.16026,10.5191 4.96177,27.3891 -0.59543,38.1066 -7.93884,15.0839 -9.52661,17.6639 -14.48838,23.2211 -2.77861,3.374 -6.94651,8.5343 -9.32817,11.5113 -2.38164,3.1756 -6.35108,8.3358 -8.93121,11.5115 -4.36637,5.3586 -4.56484,6.9464 -4.96178,46.8391 -0.39694,41.0836 -0.39694,41.282 -6.15262,52.3964 -2.97706,6.1527 -8.3358,13.2977 -11.90827,15.8777 l -6.15262,4.7634 -87.72433,0.5954 -87.92279,0.5954 z m 143.09782,-116.5027 c 2.40992,-4.4754 18.07616,-22.8174 21.63338,-29.7707 0,-0.9923 -22.22878,-1.5876 -49.61783,-1.5876 h -49.61783 v 17.8624 17.8622 h 37.70955 c 36.91566,0 37.51108,0 39.89273,-4.3663 z"
       id="path2"
       style="display:inline;fill:#15803d;fill-opacity:1;fill-rule:nonzero;stroke-width:0.19847"
       inkscape:label="b"
       sodipodi:nodetypes="cccccccccccccccccsscccccccccccccsscccsc" />
    <path
       d="m 872.90472,2856.038 c 0,-60.3353 0.39694,-68.0757 3.374,-73.4344 1.98471,-3.1756 5.55721,-6.9466 8.13733,-7.9389 2.77859,-1.3892 26.99211,-2.1832 64.90015,-2.1832 h 60.5338 v 75.4192 75.4191 h -20.83957 -20.83946 v -56.5644 -56.5642 H 942.36965 916.5684 v 56.5642 56.5644 h -21.83185 -21.83183 z"
       id="path3"
       inkscape:label="u"
       style="display:inline;stroke-width:0.19847" />
    <path
       d="m 294.95618,2914.984 c -8.73275,-5.1603 -11.51135,-11.7099 -11.51135,-27.5876 v -11.7098 h 75.41911 75.41912 v 10.916 c 0,16.2746 -5.5572,26.3966 -16.87007,30.763 -2.97707,1.1909 -28.77835,1.9848 -60.13681,1.9848 -52.5949,0 -55.37351,-0.1985 -62.32,-4.3664 z"
       id="path4"
       inkscape:label="o"
       style="display:inline;stroke-width:0.19847" />
    <path
       d="m 452.14547,2844.9236 v -74.4268 h 25.80128 25.80128 v 74.4268 74.4268 h -25.80128 -25.80128 z"
       id="path5"
       inkscape:label="r"
       style="display:inline;stroke-width:0.19847" />
    <path
       d="m 513.67158,2897.5184 v -21.8318 h 43.86217 43.86217 l -9.52662,13.2976 c -5.16026,7.145 -10.91593,14.6869 -12.90064,16.6716 -1.98471,1.9847 -4.96178,5.7557 -6.74802,8.5343 -3.37401,5.1603 -3.57249,5.1603 -30.96153,5.1603 h -27.58753 z"
       id="path6"
       inkscape:label="r"
       style="display:inline;stroke-width:0.19847" />
    <path
       d="m 283.44483,2828.2519 c 0,-39.0988 0.99237,-45.8468 8.53428,-52.7934 4.16789,-3.7709 6.94648,-3.9694 66.09095,-3.9694 58.94598,0 62.12153,0.1985 66.28943,3.9694 8.53427,7.7405 9.92357,15.0838 9.92357,53.7859 v 36.5185 h -24.80893 -24.61044 l -0.59542,-26.198 -0.59541,-26.3968 -25.20586,-0.5954 -25.40433,-0.5953 v 26.9921 26.7934 h -24.80892 -24.80892 z"
       id="path7"
       inkscape:label="o"
       style="display:inline;stroke-width:0.19847" />
    <path
       id="path9"
       d="m 581.15184,3445.2984 c -0.5954,-0.1985 -3.57151,-2.3811 -6.94552,-5.358 -3.17554,-2.7787 -9.13162,-7.7399 -12.90259,-11.3124 -9.3281,-8.3359 -31.75443,-27.5864 -36.71622,-31.5559 -12.30518,-9.7249 -22.42787,-17.8643 -27.38962,-21.8338 -3.17554,-2.3815 -8.33444,-6.5479 -11.50999,-9.3264 -3.17554,-2.7787 -7.14574,-6.1532 -8.73351,-7.344 -1.58777,-1.3892 -3.37304,-2.5816 -3.96845,-2.5816 -0.59542,0 -2.57975,-1.5862 -4.56447,-3.3725 -6.35104,-6.1526 -15.08614,-13.2993 -20.24638,-16.6732 -2.77861,-1.7864 -7.93677,-6.1505 -11.70768,-9.5245 -3.77097,-3.3738 -8.93202,-7.5424 -11.71058,-9.5272 -2.77861,-1.9847 -6.35129,-5.1621 -8.13752,-6.9483 -1.58778,-1.9847 -4.16945,-3.5702 -5.55876,-3.5702 -1.3893,0 -2.57877,-0.7956 -2.57877,-1.788 0,-0.9923 -5.15969,-5.5576 -11.31229,-10.3208 -11.5113,-8.5344 -17.06989,-13.0981 -21.23778,-16.6705 -1.19083,-1.1908 -7.54211,-6.3498 -14.09167,-11.5101 -13.29754,-10.5188 -22.42726,-18.0629 -32.74777,-26.9942 -3.77095,-3.374 -8.13577,-6.1517 -9.3266,-6.1517 -1.38931,0 -2.58169,-0.7928 -2.58169,-1.7851 0,-0.9923 -6.54897,-6.5494 -14.28935,-12.702 -7.93882,-5.9542 -17.66453,-13.6948 -21.43548,-17.0687 -3.77095,-3.374 -7.54211,-6.1548 -8.13752,-6.1548 -0.59542,0 -3.37324,-1.9851 -6.15185,-4.3667 -11.51129,-10.519 -17.46527,-15.4785 -18.65609,-15.4785 -0.59543,0 -2.183,-1.1931 -3.77076,-2.384 -1.3893,-1.3892 -6.15302,-5.5572 -10.32092,-8.9312 -4.16785,-3.5725 -10.12164,-8.7313 -13.49565,-11.51 -3.17554,-2.7786 -10.12343,-8.3371 -15.28364,-12.3065 -5.35873,-4.168 -9.5243,-8.1374 -9.5243,-8.9313 0,-0.7938 -1.19315,-1.5873 -2.38399,-1.5873 -1.38928,0 -7.54076,-4.3641 -13.69336,-9.5244 -11.70978,-9.9234 -19.6479,-16.276 -29.96839,-24.2148 -3.57248,-2.7785 -8.93199,-7.144 -11.71059,-9.9226 -2.97706,-2.7785 -7.34248,-6.3519 -9.92259,-7.9397 -2.38165,-1.5879 -7.93946,-6.1517 -12.50428,-9.9227 -23.538339,-18.645 -58.691236,-49.1793 -82.277612,-68.0753 h 46.12714 c 15.827733,11.5987 78.062912,62.4066 80.608832,64.104 2.38164,1.5877 5.95221,4.3663 7.93691,5.9541 2.18319,1.5877 6.15261,4.7652 8.93121,6.9483 2.77859,2.1834 7.34538,5.9529 9.9255,8.533 2.58013,2.3817 5.75548,4.3667 6.74783,4.3667 1.19083,0 2.77918,1.1895 3.57307,2.5788 0.79388,1.3893 5.15793,5.1626 9.5243,8.3381 4.36637,3.374 8.33579,6.3502 8.93121,6.9456 0.79388,0.7939 15.87868,12.9013 22.82517,18.4585 1.19084,0.7938 4.36754,3.3739 7.14614,5.9541 2.97704,2.3816 7.93907,6.3518 11.11457,8.7335 3.17554,2.3816 8.33523,6.7457 11.31231,9.5242 2.97706,2.7787 5.75411,4.9629 6.34952,4.9629 0.59541,0 3.17631,2.182 5.75645,4.762 2.7786,2.7787 8.1387,7.346 12.30656,10.5216 10.12205,7.5419 16.47295,12.7 21.63321,17.6617 2.38161,2.3817 5.75526,4.7628 7.54152,5.3583 1.78623,0.7938 3.17476,2.1845 3.17476,3.3753 0,0.9924 0.79271,1.9857 1.78507,1.9857 1.58777,0 11.51158,7.7385 20.04581,16.0745 1.78623,1.5877 4.76391,3.5729 6.55013,4.3667 1.78623,0.5954 3.37538,2.1845 3.37538,3.3753 0,0.9924 0.99256,1.9828 2.18337,1.9828 1.3893,0 4.36618,1.9844 6.74784,4.5645 2.38165,2.3817 6.74704,6.1549 9.92258,8.3381 3.17556,2.1831 8.93102,6.7471 12.70198,9.9226 3.96943,3.374 8.33563,6.9474 9.72489,7.9398 1.38929,1.1908 4.96198,4.167 8.13753,6.9455 3.17554,2.7787 7.74154,6.352 10.12322,7.9399 4.16788,2.7786 6.54938,4.761 15.67902,12.5014 2.38167,1.7861 5.15947,3.3753 6.15184,3.3753 1.19083,0 1.98567,0.7935 1.98567,1.5874 0,0.9924 4.16559,4.7627 9.52432,8.3351 5.16021,3.771 9.72547,7.3445 10.32088,7.94 0.59542,0.7939 7.34349,5.954 14.88536,11.9082 7.74038,5.7557 16.27581,12.5044 19.05441,14.6876 2.7786,2.3817 7.54074,5.9544 10.71628,8.1376 2.97706,2.1832 7.14497,5.357 8.93121,7.1432 1.78625,1.5878 4.76394,3.573 6.55014,4.3668 1.78623,0.5954 3.37538,1.9839 3.37538,3.1747 0,5.7557 14.08954,1.7877 22.82226,-6.3496 4.7633,-4.5647 10.91807,-9.3295 12.10889,-9.3295 0.79388,0 46.44132,-34.137 51.60158,-38.7019 1.19083,-0.9923 4.36617,-3.372 6.74783,-4.9597 2.38165,-1.5878 5.55837,-4.1702 7.14613,-5.3611 1.38931,-1.3893 2.97687,-2.5788 3.77076,-2.5788 0.79389,0 19.84714,-13.6943 29.7707,-21.6332 1.19082,-0.7939 4.76137,-3.1749 7.93691,-5.3581 3.37401,-1.9848 8.1383,-5.7551 10.9169,-8.3353 2.7786,-2.3815 8.53329,-6.9484 12.89966,-9.9254 4.36637,-2.9771 8.33735,-5.954 8.53581,-6.7479 0.39694,-0.9923 1.58854,-1.5873 2.77939,-1.5873 1.19082,0 3.5719,-1.5876 5.35814,-3.7708 1.78624,-1.9848 5.15913,-4.1689 7.73921,-4.9628 2.38165,-0.7938 4.36677,-2.3801 4.36677,-3.3725 0,-0.9923 0.79485,-1.7879 1.98568,-1.7879 1.78625,0 3.57015,-1.388 15.47844,-11.51 8.93118,-7.5418 10.12339,-8.3352 12.30658,-8.3352 0.99235,0 1.98569,-0.7957 1.98569,-1.7881 0,-0.9923 1.78526,-2.5794 3.96845,-3.1747 2.18319,-0.7939 6.15126,-3.1742 8.53292,-5.5558 2.58012,-2.3817 13.29973,-10.5203 24.01715,-18.2607 10.71745,-7.5419 21.03738,-15.2832 23.22057,-16.871 2.18319,-1.5879 6.15262,-4.7624 8.93122,-6.9457 2.97706,-2.183 6.74879,-5.3576 8.7335,-6.9453 4.96179,-4.3665 10.51766,-7.9412 14.48704,-9.1319 1.78624,-0.7939 3.37538,-1.9848 3.37538,-2.9771 0,-0.9923 2.38033,-2.9767 5.55583,-4.5644 2.97707,-1.5878 8.13675,-5.1584 11.3123,-7.937 3.37401,-2.7786 6.94881,-5.9553 8.3381,-7.1461 1.38931,-0.9924 2.97476,-1.9857 3.57018,-1.9857 0.59541,0 2.18379,-0.9905 3.57306,-1.9828 1.38929,-1.1908 5.95453,-4.7642 10.3209,-7.9398 4.36637,-3.1755 8.93024,-6.7477 9.92259,-7.5415 1.19083,-0.9923 4.7643,-3.3756 7.93984,-5.5587 3.374,-1.9847 6.3501,-4.1667 6.94552,-4.7621 0.59541,-0.5956 10.91694,-8.1384 22.82518,-16.8711 12.10671,-8.7327 23.02329,-16.8686 24.41255,-18.2579 1.58775,-1.3893 6.74808,-5.3587 11.90824,-8.9312 9.32815,-6.5495 14.68737,-10.5189 19.25221,-14.8853 1.58773,-1.3893 3.17449,-2.5817 3.96835,-2.5817 0.59551,0 2.18384,-0.7919 3.57311,-1.9828 8.11715,-6.8683 89.79155,-65.2534 122.41885,-90.0311 v 35.2191 c -35.0121,30.0324 -78.3247,60.2323 -113.0923,92.7202 -1.7862,1.5878 -4.7609,3.57 -6.5471,4.3638 -1.78634,0.5955 -3.37546,2.1847 -3.37546,3.3754 0,0.9924 -0.9933,1.9857 -1.98565,1.9857 -1.1908,0 -4.96049,2.578 -8.5329,5.7536 -8.73276,8.1372 -14.09305,12.5039 -20.44409,17.0687 -2.97711,2.1832 -6.34998,4.9639 -7.73925,6.1547 -1.1908,1.1909 -7.54293,6.5475 -13.89398,11.7078 -6.54951,5.3587 -12.10442,10.3228 -12.50136,11.3151 -0.39694,0.7939 -1.58855,1.5874 -2.77938,1.5874 -1.19082,0 -3.57188,1.5854 -5.35814,3.5702 -1.78624,1.9847 -7.1471,6.55 -12.10888,10.3209 -10.32048,8.1373 -15.87597,12.7042 -25.00564,21.0401 l -6.74783,5.9541 -1.3897,65.8909 -1.19198,65.8939 h -22.42688 -22.62457 l -0.39831,-52.7936 -0.59599,-52.7935 -5.55582,5.1605 c -2.97708,2.7785 -6.15243,5.1603 -6.74785,5.1603 -0.59542,0 -4.36791,2.7787 -8.53581,5.9542 -4.1679,3.374 -8.33348,5.9542 -9.5243,5.9542 -0.99237,0 -2.38378,1.3892 -3.17768,2.977 -0.59541,1.5877 -3.37324,3.9674 -6.15184,4.9599 -2.7786,0.9923 -4.96275,2.7805 -4.96275,3.9713 0,0.9924 -0.99256,1.9828 -2.18338,1.9828 -1.78625,0 -14.48666,8.9313 -25.00565,17.8624 -1.3893,0.9924 -3.3736,1.9857 -4.56444,1.9857 -0.99235,0 -1.98568,0.7926 -1.98568,1.7849 0,0.9925 -1.58913,2.3819 -3.37536,2.9772 -1.98472,0.5954 -6.35013,3.7722 -9.92262,7.1461 -3.57244,3.1756 -7.34206,5.9542 -8.5329,5.9542 -1.19082,0 -2.58227,1.3893 -3.17768,2.9771 -0.59542,1.5878 -2.77821,3.373 -4.56445,3.9685 -1.98471,0.5953 -5.16065,2.5796 -7.34384,4.5644 -6.15256,5.5571 -24.41059,18.2607 -26.39532,18.2607 -0.99234,0 -2.18317,1.3893 -2.97707,2.9772 -0.5954,1.5877 -1.98393,2.9769 -3.17475,2.9769 -0.99236,0 -3.57403,1.5884 -5.55877,3.5731 -5.75565,5.3587 -12.30483,10.3209 -13.49566,10.3209 -0.59541,0 -7.14574,4.9598 -14.68765,10.914 -7.54187,5.9541 -14.68668,10.9169 -15.67904,10.9169 -1.19083,0 -2.18338,0.595 -2.18338,1.5873 0,0.7938 -4.56525,4.5643 -10.32089,8.3352 -5.75567,3.771 -11.90713,8.3378 -13.69337,9.9256 -7.3434,6.351 -9.5253,7.9369 -11.50997,7.9369 -0.99236,0 -2.18318,1.3893 -2.97706,2.9771 -0.59541,1.5877 -2.18378,2.977 -3.57308,2.977 -1.58778,0 -3.97098,1.7882 -5.55876,3.9715 -1.58776,2.1831 -3.57285,3.9684 -4.36674,3.9684 -2.38164,0 -21.43258,14.4896 -21.43258,16.0773 0,0.7939 4.5631,5.357 10.12029,10.1204 16.87002,14.2898 31.55869,28.5804 31.55869,30.3666 0,1.7863 -18.06186,18.8538 -19.84811,18.8538 z"
       style="display:inline;fill:#b91c1c;fill-opacity:1;stroke-width:0.19847"
       inkscape:label="tetto"
       sodipodi:nodetypes="cccccscsccsscssccccsscsscsccccssccccsccscscsscsccsssscccssccsscsccsscsscccccccscscscscccscsccsscsscccscccscccscsccsccccscccccsscccccssccccccccccscscssscssccssccscscssssscscsssscsc" />
    <path
       id="path8"
       d="m 192.14704,3006.6777 -0.39538,-71.848 -0.59599,-72.0427 -6.15185,8.9311 c -3.57247,4.9617 -8.13693,11.1134 -10.51859,13.6935 -2.38164,2.58 -4.16906,5.3579 -4.16906,6.1517 0,0.5954 -1.58836,2.9773 -3.57307,5.1605 -1.98469,2.1832 -5.35833,6.5494 -7.54152,9.7249 -1.9847,3.374 -4.76254,7.3435 -6.15183,8.9313 -1.3893,1.5877 -9.92398,13.2985 -19.25211,25.8021 -9.32813,12.5037 -17.86359,23.8171 -19.05442,25.2063 -0.99235,1.3893 -1.98276,3.3736 -1.98276,4.5645 0,0.9923 -0.7935,1.9857 -1.58739,1.9857 -0.79388,0 -3.17787,2.9755 -5.36106,6.3496 -4.7633,8.3356 -14.289743,17.0687 -21.633166,20.0457 l -3.709714,1.5903 H 35.385709 c -0.821114,-0.5828 -2.0544,-1.2076 -3.60214,-1.788 -7.541894,-2.7787 -16.870071,-11.9091 -20.839489,-20.6418 -2.9770648,-6.3511 -3.3753699,-17.6625 -3.3753699,-107.5699 V 2770.4978 H 40.316482 73.064249 v 71.845 72.0458 l 4.962752,-5.3583 c 2.778599,-2.977 4.962752,-6.3506 4.962752,-7.5414 0,-0.9923 0.793504,-1.9857 1.587382,-1.9857 1.984712,0 34.137465,-44.8553 34.137465,-47.4354 0,-0.9925 1.3893,-2.1833 2.97706,-2.9771 1.58777,-0.5954 4.16655,-3.5731 5.55585,-6.5501 1.19082,-2.9771 4.36618,-7.1443 6.74783,-9.1289 2.58013,-1.9848 4.56445,-4.7626 4.56445,-6.1519 0,-1.1908 1.58835,-3.7704 3.57308,-5.3581 1.78622,-1.7863 6.94591,-8.3366 11.31227,-14.6877 10.91591,-15.6792 23.42119,-28.1831 32.35238,-31.9541 8.73272,-3.771 37.11221,-4.5638 40.6847,-0.9914 1.19082,1.1908 3.37574,2.1834 4.76505,2.1834 2.97703,0 4.96026,1.3875 15.28072,10.914 12.5037,11.3128 12.10658,6.5494 12.70199,117.6932 l 0.59599,101.6186 h -33.73915 z"
       style="display:inline;fill:#15803d;fill-opacity:1;stroke-width:0.19847"
       inkscape:label="n"
       sodipodi:nodetypes="ccccssscsscssccccccsccccccssscccscccssccccc" />
  </g>
</svg>
