<svg width="100" height="52.016" viewBox="0 0 26.458 13.763" xmlns="http://www.w3.org/2000/svg"><defs><radialGradient id="b" cx="-27.203" cy="53.42" r="12.743" gradientTransform="matrix(.3735 0 0 .3735 21.93 -17.869)" gradientUnits="userSpaceOnUse"><stop offset=".188" style="stop-color:#e10016"/><stop offset=".284" style="stop-color:#e3001a"/><stop offset=".404" style="stop-color:#e00015"/><stop offset=".556" style="stop-color:#df0014"/><stop offset=".671" style="stop-color:#dd0015"/><stop offset=".817" style="stop-color:#d30216"/><stop offset="1" style="stop-color:#a91115"/></radialGradient><radialGradient id="a" cx="-28.954" cy="53.444" r="18.516" gradientTransform="matrix(.3735 0 0 .3735 21.93 -17.869)" gradientUnits="userSpaceOnUse"><stop offset="0" style="stop-color:#212a7a"/><stop offset=".04" style="stop-color:#202978"/><stop offset=".083" style="stop-color:#202977"/><stop offset=".133" style="stop-color:#1e2770"/><stop offset=".2" style="stop-color:#1c246a"/><stop offset=".267" style="stop-color:#16215d"/><stop offset=".333" style="stop-color:#141c52"/><stop offset=".413" style="stop-color:#12194b"/><stop offset=".5" style="stop-color:#101745"/><stop offset=".6" style="stop-color:#0f1540"/><stop offset=".717" style="stop-color:#0e143c"/><stop offset=".85" style="stop-color:#0e143e"/><stop offset="1" style="stop-color:#0f123c"/></radialGradient><linearGradient id="c" gradientUnits="userSpaceOnUse" x1="-28.969" y1="48.798" x2="-17.42" y2="48.818" gradientTransform="matrix(.3735 0 0 .3735 21.93 -17.869)"><stop offset="0" style="stop-color:#696d67"/><stop offset=".035" style="stop-color:#70746e"/><stop offset=".11" style="stop-color:#797e77"/><stop offset=".21" style="stop-color:#7c817a"/><stop offset=".478" style="stop-color:#7a7f78"/><stop offset=".592" style="stop-color:#737872"/><stop offset=".676" style="stop-color:#686b67"/><stop offset=".747" style="stop-color:#585a57"/><stop offset=".807" style="stop-color:#424343"/><stop offset=".82" style="stop-color:#3d3d3e"/><stop offset="1" style="stop-color:#36373b"/></linearGradient><linearGradient id="d" gradientUnits="userSpaceOnUse" x1="-13.35" y1="63.088" x2="-33.77" y2="52.683" gradientTransform="matrix(.3735 0 0 .3735 21.93 -17.869)"><stop offset="0" style="stop-color:#55564f"/><stop offset=".091" style="stop-color:#60625f"/><stop offset=".18" style="stop-color:#717576"/><stop offset=".253" style="stop-color:#81898c"/><stop offset=".315" style="stop-color:#93999b"/><stop offset=".361" style="stop-color:#9ba3a6"/><stop offset=".411" style="stop-color:#a8aeb0"/><stop offset=".47" style="stop-color:#bdc0be"/><stop offset=".533" style="stop-color:#d0d1ce"/><stop offset=".59" style="stop-color:#dddfdc"/><stop offset=".665" style="stop-color:#e1e4e1"/><stop offset=".731" style="stop-color:#e8ebea"/><stop offset=".824" style="stop-color:#f1f3f2"/><stop offset=".906" style="stop-color:#f4f6f5"/><stop offset="1" style="stop-color:#f6f7f7"/></linearGradient></defs><path d="m17.782 11.681-1.584-2.117h-1.906v3.274l-1.264-3.274h-2.441l-.917 2.374H8.178c-.075.475-.35.726-.83.726-.554 0-.863-.429-.863-1.092 0-.664.315-1.087.863-1.087.453 0 .744.24.807.63h1.653v-.109c0-.887-.766-1.62-2.442-1.62-1.809 0-2.494.904-2.494 2.186l.001.087c-.226-.275-.662-.436-1.38-.539l-1.047-.149c-.394-.057-.64-.103-.64-.297 0-.166.155-.344.584-.344.475 0 .737.183.737.481H4.81v-.086c0-.8-.8-1.327-2.373-1.327-1.619 0-2.329.59-2.329 1.419 0 .647.424 1.024 1.419 1.16l1.184.167c.423.057.56.143.56.32 0 .229-.217.355-.703.355-.55 0-.8-.235-.8-.56H0v.091c0 .892.84 1.407 2.493 1.407 1.528 0 2.414-.338 2.559-1.19.305.732 1.025 1.196 2.315 1.196.978 0 1.528-.267 1.857-.669l-.187.485h1.572l.223-.577h1.922l.223.577h2.82v-2.31l1.74 2.31h1.75V9.564h-1.505zm-6.543.257.555-1.448.554 1.448zm13.67-2.374h-2.442l-1.264 3.274V9.563h-1.54v4.017h2.825l.224-.578h1.922l.223.577h1.601zm-1.79 2.374.554-1.448.555 1.448z" fill="#001841" style="stroke-width:.833345"/><path fill="none" d="M8.975 0h8.586v8.157H8.976z" style="display:inline;stroke-width:.229888"/><path style="fill:url(#a);stroke-width:.05961" d="M13.263.123a3.646 3.646 0 0 0-2.125.683 11.863 11.863 0 0 1-.77-.167 4.26 4.26 0 0 0-1.264 2.19 11.902 11.902 0 0 1 .53.583 3.647 3.647 0 0 0 2.124 3.68 11.813 11.813 0 0 1 .241.75 4.258 4.258 0 0 0 2.529 0 11.814 11.814 0 0 1 .24-.75 3.647 3.647 0 0 0 2.125-3.68 11.87 11.87 0 0 1 .53-.583 4.26 4.26 0 0 0-1.265-2.19 11.91 11.91 0 0 1-.77.167 3.646 3.646 0 0 0-2.125-.683z"/><path style="display:inline;fill:url(#b);stroke-width:.05961" d="M13.323 1.233a.23.23 0 0 0-.228.232.232.232 0 0 0 .07.167.003.003 0 0 1 0 .004.003.003 0 0 1-.003.001.003.003 0 0 1-.002 0 .23.23 0 0 0-.342.202.23.23 0 0 0 .228.232.23.23 0 0 0 .136-.044.003.003 0 0 1 .001 0 .003.003 0 0 1 .003 0v.001a.003.003 0 0 1 0 .005c-.1.167-.226.339-.407.339-.202 0-.296-.087-.379-.229a.003.003 0 0 1 0-.003.003.003 0 0 1 .003-.002.28.28 0 0 0 .047.005.22.22 0 0 0 .065-.012c.112-.037.166-.147.143-.29h-.002.002a.229.229 0 0 0-.218-.168.225.225 0 0 0-.167.073.003.003 0 0 1-.002 0h-.002l-.002.003v.002l.001-.004a.003.003 0 0 1 0-.005.248.248 0 0 0 .023-.183.302.302 0 0 0-.303-.203l-.001-.001v.001l.504 1.238a.003.003 0 0 1 0 .002.003.003 0 0 0 0 .001.003.003 0 0 1 0 .002.639.639 0 0 0-.092.116c0 .002-.002.002-.003.002a.003.003 0 0 1-.001 0 .767.767 0 0 0-.338-.087.538.538 0 0 0-.201.038.553.553 0 0 0-.186.124c-.125.125-.22.334-.283.618a2.973 2.973 0 0 0-.027.14 3.217 3.217 0 0 1 .145-.105 1.38 1.38 0 0 1 .12-.07.758.758 0 0 1 .32-.095.272.272 0 0 1 .17.054l.013.013a.762.762 0 0 0 .385.247c.24.064.245.105.248.14h.003l-.002.001s-.044.07-.133.132h-.002a.003.003 0 0 1-.003-.001.67.67 0 0 0-.58-.347h-.004c-.06 0-.115.012-.178.025-.088.02-.198.044-.368.044-.25 0-.462-.054-.649-.164-.086-.047-.154-.103-.214-.153l-.035-.03.008.011-.008-.01c.024.057.046.106.069.153a5.375 5.375 0 0 1 .036.078c.017.038.11.233.23.338a.653.653 0 0 0 .436.166c.146 0 .291-.044.431-.085.14-.042.274-.082.41-.082.175 0 .27.06.346.106a.003.003 0 0 1 .001.002h.004l-.004.001a.003.003 0 0 1 0 .003l-.082.053a.503.503 0 0 1-.278.095c-.092 0-.266-.046-.444-.117l-.002.031v.042a.403.403 0 0 0 .117.302.44.44 0 0 0 .16.103.764.764 0 0 0 .23.042.003.003 0 0 1 .003.002.003.003 0 0 1 0 .003c-.041.038-.075.069-.11.113a.661.661 0 0 0-.156.428.8.8 0 0 0 .04.246 2.065 2.065 0 0 0 .054.153l.072-.086a1.278 1.278 0 0 1 .2-.184.003.003 0 0 1 .001 0 .003.003 0 0 1 .003.001.003.003 0 0 1 .001.005 1.052 1.052 0 0 0-.117.472c0 .322.16.62.475.884.001 0 .061.054.106.09V6.46c0-.216.039-.535.145-.727a.003.003 0 0 1 .004-.002.003.003 0 0 1 .003.004 2.128 2.128 0 0 1 .039.2c.02.123.03.241.03.336 0 .152-.02.288-.057.405-.03.095-.057.139-.08.178l-.008.013.033.001a1.2 1.2 0 0 0 .276-.033.818.818 0 0 0 .482-.304.817.817 0 0 0 .13-.25c.033-.1.05-.213.05-.335 0-.065-.006-.135-.018-.215l-.005-.031-.003-.027.001-.004v-.001a.004.004 0 0 1 .002 0 .004.004 0 0 1 .003.002.375.375 0 0 1 .05.05.548.548 0 0 1 .123.372c0 .095-.009.18-.028.261L14 6.356H14a.84.84 0 0 0 .178-.094 1.198 1.198 0 0 0 .205-.164.948.948 0 0 0 .292-.658.938.938 0 0 0-.114-.463l-.015-.026-.013-.026a.004.004 0 0 1 0-.004V4.92v.001a.003.003 0 0 1 .004 0 .003.003 0 0 1 .001 0 .367.367 0 0 1 .053.028.503.503 0 0 1 .19.258.995.995 0 0 1 .052.192.988.988 0 0 0 .089-.131c.098-.17.148-.368.148-.588 0-.163-.026-.31-.078-.448a1.02 1.02 0 0 0-.304-.428.003.003 0 0 1-.002-.004.003.003 0 0 1 .005-.003.37.37 0 0 1 .034.006.423.423 0 0 1 .218.115.65.65 0 0 1 .113.162 2.633 2.633 0 0 1 .028.058c.003-.019.002-.029.002-.044l.001-.017c-.008-.537-.181-.855-.58-1.062l-.003-.002a.003.003 0 0 1-.001-.002v-.003c.166-.188.235-.398.28-.578a.644.644 0 0 0-.16-.02 1.033 1.033 0 0 0-.434.11h-.002a.003.003 0 0 1-.002 0h-.001l.001-.002c0-.001-.002-.002 0-.004l.47-1.16a.3.3 0 0 0-.304.205.247.247 0 0 0 .023.183.003.003 0 0 1-.001.004v.002-.001a.003.003 0 0 1-.002 0 .003.003 0 0 1-.003-.001.228.228 0 0 0-.166-.073.223.223 0 0 0-.219.168c-.03.14.032.253.143.29a.224.224 0 0 0 .066.012.272.272 0 0 0 .047-.005.003.003 0 0 1 .003.002.003.003 0 0 1 0 .003c-.085.144-.175.227-.375.227-.184 0-.315-.18-.409-.337a.003.003 0 0 1 0-.005v-.001a.003.003 0 0 1 .003 0 .003.003 0 0 1 .002 0s.087.044.136.044a.23.23 0 0 0 .228-.232.23.23 0 0 0-.228-.232.224.224 0 0 0-.117.033.003.003 0 0 1-.001 0 .003.003 0 0 1-.002-.002.003.003 0 0 1 0-.004.246.246 0 0 0 .071-.17.23.23 0 0 0-.227-.23zm-.009.037h.009c.169 0 .256.212.13.338a.04.04 0 0 0-.005.054l.005-.003-.004.003a.04.04 0 0 0 .054.01.19.19 0 0 1 .286.167.193.193 0 0 1-.19.195.38.38 0 0 1-.12-.04.042.042 0 0 0-.048.009.04.04 0 0 0-.005.049c.098.165.238.355.44.355.218 0 .318-.093.408-.244a.041.041 0 0 0-.001-.044l-.003.002.003-.003a.04.04 0 0 0-.04-.016c-.139.022-.25-.086-.212-.253.03-.135.216-.19.32-.078a.04.04 0 0 0 .054.006.04.04 0 0 0 .012-.054c-.086-.153.048-.31.193-.33L14.15 2.5a.042.042 0 0 0 .007.043.04.04 0 0 0 .03.014h-.083c-.01-.013-.03-.01-.05-.012-.006 0-1.367 0-1.375.002a.101.101 0 0 0-.019.01h-.033c-.067.052-.179.169-.199.252 0 0-.738-.502-.97.59 0 0 .447-.321.703-.112 0 0 .131.183.369.245.322.084.286.149.3.217 0 0-.043.104-.322.281-.279.177-.437.092-.696.01 0 0-.014.377.492.37 0 0 .085.008.183-.005 0 0-.605.257-.378.886 0 0 .21-.253.441-.31 0 0-.657.747.213 1.48 0 0 0-.67.249-.877 0 0 .138.534.092.829 0 0-.011.254-.087.387 0 0 1.034-.023.739-1.265 0 0 .411.14.326.707 0 0 .932-.466.318-1.421 0 0 .35 0 .458.42 0 0 .497-.77-.326-1.5 0 0 .31-.077.482.18 0 0-.024-.584-.575-.871a.077.077 0 0 1-.035-.033c.159-.154.24-.343.274-.445l.017-.05a.032.032 0 0 0 .002-.012l.006-.024-.023-.002a.032.032 0 0 0-.014-.004h-.053a.906.906 0 0 0-.357.077h-.062a.04.04 0 0 0 .011-.004c.165-.076.353-.128.532-.094a1.243 1.243 0 0 1-.262.525.04.04 0 0 0-.008.034h-.001a.04.04 0 0 0 .022.029h.003c.362.19.53.474.555.942a.464.464 0 0 0-.352-.228.04.04 0 0 0-.042.025.04.04 0 0 0 .013.046c.39.307.478.977.225 1.417l-.037.06c-.045-.177-.133-.352-.3-.423a.042.042 0 0 0-.047.01c-.022.023-.007.045.008.072.283.525.055 1.064-.463 1.325.04-.239.015-.5-.173-.651a.042.042 0 0 0-.046-.004c-.027.015-.021.039-.016.068.111.693-.254 1.107-.847 1.125.17-.316.124-.812.047-1.105a.042.042 0 0 0-.034-.03.042.042 0 0 0-.041.02c-.124.22-.149.552-.15.804-.283-.24-.506-.509-.506-.895 0-.152.037-.305.112-.455a.042.042 0 0 0-.01-.05.04.04 0 0 0-.05-.002c-.097.07-.169.145-.237.227l-.002.008.001-.008a.922.922 0 0 1-.068-.326.628.628 0 0 1 .147-.405.949.949 0 0 1 .103-.105c.017-.015.02-.03.014-.047a.04.04 0 0 0-.036-.027c-.137-.007-.27-.035-.367-.133-.092-.095-.106-.189-.106-.294.42.155.54.12.79-.056a.04.04 0 0 0 .018-.034.04.04 0 0 0-.02-.034c-.6-.368-1.075.357-1.618-.102-.128-.111-.217-.317-.257-.403l-.004-.009c.339.261.76.3 1.176.21.06-.012.113-.024.17-.024a.628.628 0 0 1 .255.057 1.017 1.017 0 0 0-.215-.042.464.464 0 0 0-.056.006.743.743 0 0 0-.128.02c-.16.037-.313.058-.464.054-.188-.01-.456-.073-.57-.161a.04.04 0 0 0-.022-.006.032.032 0 0 0-.037.003.03.03 0 0 0-.007.012.065.065 0 0 0-.012.012c-.019.023.012.054.029.078.027.039.091.106.133.146a.652.652 0 0 0 .005.006.577.577 0 0 0 .012.01l.011.01.007.006a.577.577 0 0 0 .184.11l.027.009a.577.577 0 0 0 .053.013.527.527 0 0 0 .018.004.577.577 0 0 0 .105.01c.153 0 .292-.047.436-.09.15-.039.312-.074.498-.063.029.004.058.01.089.018a.03.03 0 0 0 .027-.006c.034-.002.022-.035.016-.058a.091.091 0 0 0-.028-.037.628.628 0 0 1 .067.055.916.916 0 0 1 .12.154.04.04 0 0 0 .025.017.04.04 0 0 0 .032-.006.538.538 0 0 0 .142-.143.042.042 0 0 0 .007-.026h-.001c-.008-.066-.052-.111-.276-.17a.725.725 0 0 1-.367-.235c-.164-.188-.527-.016-.742.14.06-.296.175-.647.456-.76.165-.067.35-.034.508.046a.04.04 0 0 0 .027.005.042.042 0 0 0 .027-.02.644.644 0 0 1 .085-.11.04.04 0 0 0 .011-.025c.001-.015-.48-1.192-.487-1.206l-.003-.003.004.003c.144.02.279.176.193.33a.04.04 0 0 0 .012.054.04.04 0 0 0 .054-.006.188.188 0 0 1 .32.078c.02.124-.024.216-.117.247a.188.188 0 0 1-.054.01c-.016 0-.044-.004-.048-.004a.04.04 0 0 0-.033.016.04.04 0 0 0-.002.045c.089.148.192.246.412.246.2 0 .334-.18.44-.357A.042.042 0 0 0 13.211 2a.042.042 0 0 0-.052-.003.192.192 0 0 1-.303-.158.192.192 0 0 1 .286-.17.04.04 0 0 0 .052-.01.04.04 0 0 0-.003-.054c-.122-.119-.042-.328.123-.335z"/><path style="display:inline;fill:url(#c);stroke-width:.05961" d="M13.268 0a3.768 3.768 0 0 0-2.153.676 11.715 11.715 0 0 1-.775-.173 4.414 4.414 0 0 0-.173.165 4.388 4.388 0 0 0-1.192 2.2 11.694 11.694 0 0 1 .537.585 3.756 3.756 0 0 0-.014.317 3.77 3.77 0 0 0 .014.16 3.767 3.767 0 0 0 .02.235 3.77 3.77 0 0 0 .044.309 3.767 3.767 0 0 0 .074.303 3.77 3.77 0 0 0 .07.23 3.767 3.767 0 0 0 .148.357 3.77 3.77 0 0 0 .043.104 3.763 3.763 0 0 1-.04-.097 3.767 3.767 0 0 0 1.166 1.422 3.765 3.765 0 0 1-.074-.051 3.77 3.77 0 0 0 .086.06 3.767 3.767 0 0 0 .19.134 3.77 3.77 0 0 0 .426.246 11.632 11.632 0 0 1 .239.757 4.39 4.39 0 0 0 .538.135 4.39 4.39 0 0 0 .002 0 4.39 4.39 0 0 0 .515.066 4.383 4.383 0 0 0 .078.004 4.39 4.39 0 0 0 .231.012c.469 0 .929-.075 1.365-.217a11.667 11.667 0 0 1 .239-.758 3.77 3.77 0 0 0 .103-.058 3.763 3.763 0 0 1-.027.013 3.77 3.77 0 0 0 .983-.703 3.767 3.767 0 0 0 1.098-2.586 3.763 3.763 0 0 1-.002.074 3.77 3.77 0 0 0 .011-.151c0-.107-.005-.212-.014-.317a11.694 11.694 0 0 1 .538-.585 4.387 4.387 0 0 0-1.192-2.2 4.375 4.375 0 0 0-.173-.165 11.709 11.709 0 0 1-.775.173A3.768 3.768 0 0 0 13.268 0zm-.175.042a3.733 3.733 0 0 1 2.315.67.033.033 0 0 0 .013.005.033.033 0 0 0 .012 0 11.734 11.734 0 0 0 .761-.169 4.352 4.352 0 0 1 1.328 2.299 11.722 11.722 0 0 0-.528.575.033.033 0 0 0-.006.012.037.037 0 0 0-.001.013 3.732 3.732 0 0 1-2.14 3.705.032.032 0 0 0-.011.009.032.032 0 0 0-.006.01 11.73 11.73 0 0 0-.234.743 4.345 4.345 0 0 1-2.654 0 11.653 11.653 0 0 0-.235-.744.033.033 0 0 0-.007-.012.035.035 0 0 1-.001 0 .035.035 0 0 0-.009-.006 3.732 3.732 0 0 1-2.14-3.705.033.033 0 0 0-.002-.013h-.001l.001-.001a.035.035 0 0 0-.006-.011 11.807 11.807 0 0 0-.526-.575A4.352 4.352 0 0 1 10.342.548a11.841 11.841 0 0 0 .762.169.033.033 0 0 0 .013 0 .035.035 0 0 0 .012-.005 3.733 3.733 0 0 1 1.965-.67zm.175.12A3.6 3.6 0 0 0 11.4.685a.048.048 0 0 0-.022.044v.005a.047.047 0 0 0 .04.038 11.728 11.728 0 0 0 3.702 0 .047.047 0 0 0 .036-.033l.002-.005a.048.048 0 0 0-.022-.049 3.6 3.6 0 0 0-1.868-.523zm-.22.079a3.54 3.54 0 0 1 .441 0 3.543 3.543 0 0 1 .092.006 3.54 3.54 0 0 1 .457.071 3.543 3.543 0 0 1 .06.013 3.54 3.54 0 0 1 .498.158A3.543 3.543 0 0 1 14.6.49a3.54 3.54 0 0 1 .487.242 11.69 11.69 0 0 1-3.638 0 3.54 3.54 0 0 1 .488-.243 3.54 3.54 0 0 1 .502-.16 3.543 3.543 0 0 1 .058-.012 3.54 3.54 0 0 1 .458-.07 3.543 3.543 0 0 1 .092-.007zm2.958.312c-.123.03-.247.057-.371.083a11.707 11.707 0 0 0 .371-.083zm-5.613.142a.055.055 0 0 0-.014.003.053.053 0 0 0-.022.013 4.22 4.22 0 0 0-1.194 2.067.053.053 0 0 0 0 .025.054.054 0 0 0 .014.026 12.485 12.485 0 0 1 .337.364.042.042 0 0 0 .042.012.042.042 0 0 0 .028-.032A3.73 3.73 0 0 1 10.91.878a.04.04 0 0 0 .014-.042.04.04 0 0 0-.031-.03 11.153 11.153 0 0 1-.484-.108.055.055 0 0 0-.015-.003zm5.75 0a.055.055 0 0 0-.014.003 11.133 11.133 0 0 1-.483.108.042.042 0 0 0-.031.027v.004a.042.042 0 0 0 .013.042 3.732 3.732 0 0 1 1.325 2.294.04.04 0 0 0 .029.033v-.001a.042.042 0 0 0 .041-.012 12.921 12.921 0 0 1 .337-.364.053.053 0 0 0 .014-.026.054.054 0 0 0 0-.025A4.22 4.22 0 0 0 16.18.71a.05.05 0 0 0-.022-.012.055.055 0 0 0-.014-.003zm-.01.06a4.156 4.156 0 0 1 1.176 2.042 12.077 12.077 0 0 0-.323.35 3.77 3.77 0 0 0-.128-.518 3.77 3.77 0 0 0-.051-.128 3.767 3.767 0 0 0-.494-.936 3.77 3.77 0 0 0-.233-.298 3.767 3.767 0 0 0-.052-.058 3.77 3.77 0 0 0-.095-.106 3.774 3.774 0 0 0-.266-.241l.001-.001a11.934 11.934 0 0 0 .465-.105zm-5.73.002a12.052 12.052 0 0 0 .465.105 3.747 3.747 0 0 0-.266.242 3.77 3.77 0 0 0-.096.108 3.767 3.767 0 0 0-.046.052 3.77 3.77 0 0 0-.244.309 3.767 3.767 0 0 0-.448.833 3.77 3.77 0 0 0-.218.74 12.081 12.081 0 0 0-.323-.35 4.155 4.155 0 0 1 1.176-2.04zm.744.102a.053.053 0 0 0-.021.01 3.604 3.604 0 0 0-1.441 2.495.052.052 0 0 0 0 .014.056.056 0 0 0 .012.028 11.864 11.864 0 0 1 2.1 3.638.055.055 0 0 0 .013.02.056.056 0 0 0 .018.012 3.607 3.607 0 0 0 2.881 0 .055.055 0 0 0 .02-.014.056.056 0 0 0 .01-.018 11.885 11.885 0 0 1 .888-1.912 11.875 11.875 0 0 1 1.212-1.725.056.056 0 0 0 .013-.029.052.052 0 0 0 0-.014A3.604 3.604 0 0 0 15.41.87a.054.054 0 0 0-.02-.01.056.056 0 0 0-.022 0 11.864 11.864 0 0 1-4.201 0 .055.055 0 0 0-.02 0zm.023.06a11.929 11.929 0 0 0 2.098.187 11.928 11.928 0 0 0 .247-.01h-.133a11.932 11.932 0 0 0 .758-.033c-.062.004-.125.009-.188.012a11.928 11.928 0 0 0 .723-.063l-.18.02a11.932 11.932 0 0 0 .7-.094l-.169.027a11.928 11.928 0 0 0 .341-.046 3.546 3.546 0 0 1 .405.348 3.538 3.538 0 0 1 1.014 2.11 11.916 11.916 0 0 0-2.099 3.636 3.538 3.538 0 0 1-2.838 0 11.925 11.925 0 0 0-.888-1.91 11.94 11.94 0 0 0-1.21-1.725 3.54 3.54 0 0 1 1.014-2.111 3.547 3.547 0 0 1 .405-.348zm3.856.046a11.928 11.928 0 0 1-.35.047c.117-.014.234-.03.35-.047zm-1.074.11a11.928 11.928 0 0 1-.437.02c.146-.003.291-.011.437-.02zm2.571.105a4.16 4.16 0 0 1 .016.018 4.164 4.164 0 0 0-.016-.018zm-3.2.05a.237.237 0 0 0-.031.009l.03-.003c.124 0 .225.102.225.228a.24.24 0 0 1-.071.167.007.007 0 0 0 0 .01.008.008 0 0 0 .005.002h.003a.22.22 0 0 1 .115-.033c.123 0 .223.103.223.228 0 .126-.1.229-.223.229a.433.433 0 0 1-.135-.043.007.007 0 0 0-.003 0 .007.007 0 0 0-.005.002.007.007 0 0 0-.001.008c.094.159.226.34.411.34.202 0 .295-.088.379-.229a.007.007 0 0 0 0-.007.007.007 0 0 0-.007-.003.278.278 0 0 1-.046.005.218.218 0 0 1-.065-.013c-.109-.036-.17-.147-.14-.286a.22.22 0 0 1 .12-.144.226.226 0 0 0-.126.143c-.032.143.031.257.144.294a.197.197 0 0 0 .114.008c-.087.145-.177.225-.373.225-.187 0-.319-.192-.405-.336 0 0 .088.043.138.043a.233.233 0 0 0 .23-.235.233.233 0 0 0-.23-.236.23.23 0 0 0-.118.034.248.248 0 0 0 .072-.172.233.233 0 0 0-.23-.236zm-.031.009a.219.219 0 0 0-.074.025.237.237 0 0 1 .074-.025zm-.115.053a.229.229 0 0 0-.05.065.237.237 0 0 1 .05-.065zm-1.195.06.506 1.244a.67.67 0 0 0-.091.117c-.109-.055-.325-.136-.542-.048a.557.557 0 0 0-.187.125c-.16.161-.241.429-.283.619a3.015 3.015 0 0 0-.03.149c.067-.05.112-.083.152-.11a1.193 1.193 0 0 1 .12-.07.748.748 0 0 1 .317-.094.27.27 0 0 1 .17.054c.016.013.144.194.398.26.238.063.243.103.247.135l-.025.033a.503.503 0 0 0 .03-.03.007.007 0 0 0 .002-.004c-.005-.035-.01-.077-.253-.141a.758.758 0 0 1-.383-.246.175.175 0 0 0-.012-.014.275.275 0 0 0-.174-.054.76.76 0 0 0-.32.095c-.05.025-.083.046-.12.07a3.05 3.05 0 0 0-.14.1 2.917 2.917 0 0 1 .026-.132c.063-.283.158-.492.283-.616a.553.553 0 0 1 .184-.123.535.535 0 0 1 .2-.038c.137 0 .259.047.335.086a.007.007 0 0 0 .01-.002.638.638 0 0 1 .091-.117.008.008 0 0 0 0-.007l-.502-1.235a.298.298 0 0 1 .296.202.24.24 0 0 1-.023.18.008.008 0 0 0 .003.008.007.007 0 0 0 .004.002.007.007 0 0 0 .005-.002.222.222 0 0 1 .07-.05.228.228 0 0 0-.075.045.25.25 0 0 0 .023-.185.303.303 0 0 0-.312-.205zm2.678 0a.303.303 0 0 0-.312.206.248.248 0 0 0 .023.185.23.23 0 0 0-.104-.065.226.226 0 0 0-.06-.001.225.225 0 0 1 .159.07.007.007 0 0 0 .008.001.007.007 0 0 0 .003-.008.242.242 0 0 1-.023-.18.302.302 0 0 1 .296-.202l-.47 1.155c0 .004 0 .006.002.009a.007.007 0 0 0 .004.001.008.008 0 0 0 .004 0c.155-.072.3-.109.432-.109a.64.64 0 0 1 .155.019 1.306 1.306 0 0 1-.276.573.008.008 0 0 0-.002.006.008.008 0 0 0 .003.004l.004.002c.397.206.569.523.577 1.059v.018a.632.632 0 0 1-.001.03 1.917 1.917 0 0 0-.024-.047.652.652 0 0 0-.049-.07c.016.024.03.048.044.074l.033.068c.004-.033.003-.044.005-.073-.009-.484-.143-.837-.582-1.065a.06.06 0 0 0-.003-.002c.154-.175.228-.372.28-.583-.106-.027-.301-.05-.599.09zm-.453.325a.225.225 0 0 0-.005-.001.22.22 0 0 0-.003 0 .226.226 0 0 1 .008 0zm-1.101-.27a.229.229 0 0 0-.008.057.228.228 0 0 0 .002.012.237.237 0 0 1 .006-.068zm.023.166a.237.237 0 0 0 .033.061.234.234 0 0 0-.116-.03.233.233 0 0 0-.231.235.233.233 0 0 0 .368.192c-.085.144-.216.338-.404.338-.196 0-.29-.082-.377-.227.051.008.067.006.114-.008.114-.036.177-.15.146-.294a.226.226 0 0 0-.019-.033c.005.011.009.023.011.035.031.138-.03.25-.14.285a.217.217 0 0 1-.064.013.28.28 0 0 1-.047-.005.008.008 0 0 0-.006.003.007.007 0 0 0 0 .008c.084.142.177.229.382.229.182 0 .31-.172.41-.341a.007.007 0 0 0-.006-.01.007.007 0 0 0-.004 0 .227.227 0 0 1-.133.043.227.227 0 0 1-.224-.229.227.227 0 0 1 .336-.198.007.007 0 0 0 .01-.002.007.007 0 0 0 0-.009.228.228 0 0 1-.039-.056zm-.69.103a.222.222 0 0 0-.009.001.226.226 0 0 1 .023 0l-.014-.001zm.014.001a.226.226 0 0 1 .088.024.227.227 0 0 0-.088-.024zm-.023 0a.226.226 0 0 0-.054.002.228.228 0 0 0-.025.016.222.222 0 0 1 .08-.018zm.123.03a.226.226 0 0 1 .068.062.217.217 0 0 0-.068-.062zm2.06.8a.956.956 0 0 0-.723.36l-.07-.055a1.185 1.185 0 0 1 .263-.23.004.004 0 0 0 .002-.005c-.001-.002-.002-.003-.004-.003l-.027-.001H12.69a.004.004 0 0 0-.002 0 .495.495 0 0 0-.091.07.62.62 0 0 0-.101.123.005.005 0 0 0 0 .004.004.004 0 0 0 .002.003.25.25 0 0 0 .03.007l-.028-.01a.62.62 0 0 1 .1-.123.475.475 0 0 1 .087-.07h1.369l.025.001c-.162.105-.259.225-.267.234l.078.061a.952.952 0 0 1 .722-.361h.053l-.017.05c-.054.16-.225.542-.645.636l.002.008.018.088a.788.788 0 0 0 .396-.198.902.902 0 0 1 .508.63l.013.056a.242.242 0 0 0-.042-.036.476.476 0 0 0-.256-.07.696.696 0 0 0-.216.037 2.818 2.818 0 0 1 .168.155 1.223 1.223 0 0 1 .3.441c.043.117.064.24.064.375a.991.991 0 0 1-.076.393l-.018.046a.5.5 0 0 0-.017-.037.237.237 0 0 1 .013.037.004.004 0 0 0 .004.004.004.004 0 0 0 .003-.004l.019-.045a.966.966 0 0 0 .076-.394c0-.136-.02-.26-.064-.377a1.245 1.245 0 0 0-.3-.443 2.846 2.846 0 0 0-.164-.15.693.693 0 0 1 .208-.033.477.477 0 0 1 .254.07.242.242 0 0 1 .04.034.004.004 0 0 0 .004 0 .004.004 0 0 0 .002 0 .004.004 0 0 0 .002-.003l-.011-.049-.002-.008a.911.911 0 0 0-.51-.633h-.001a.004.004 0 0 0-.003.001.78.78 0 0 1-.39.197l-.018-.088c.417-.097.59-.479.642-.639l.017-.05a.004.004 0 0 0 0-.004l-.003-.001zm.234 2.58a.237.237 0 0 0-.002-.008.497.497 0 0 0-.004-.005.5.5 0 0 1 .006.012zm-.397-2.398c-.222.028-.423.227-.423.227l.045.096a.495.495 0 0 0 .247-.139.495.495 0 0 0 .131-.184zm-.006.004a.513.513 0 0 1-.128.177.488.488 0 0 1-.242.138l-.043-.092c.022-.02.209-.194.413-.223zm-2.388.047a.427.427 0 0 0-.16.03.517.517 0 0 0-.244.228 1.457 1.457 0 0 0-.108.252l-.012.041a.004.004 0 0 0 0 .004.004.004 0 0 0 .003 0 .005.005 0 0 0 .003 0l.037-.016c.055-.026.093-.044.142-.06a.68.68 0 0 1 .23-.047.37.37 0 0 1 .242.08l.023.025a.64.64 0 0 0 .328.211c.332.088.334.177.337.271 0 .005-.015.041-.078.103a.944.944 0 0 1-.062.058 1.33 1.33 0 0 0 .065-.055c.065-.064.08-.1.08-.106-.004-.097-.006-.186-.341-.275a.638.638 0 0 1-.326-.21l-.023-.025a.376.376 0 0 0-.244-.082.683.683 0 0 0-.233.047 1.814 1.814 0 0 0-.14.06l-.04.018.013-.041a1.452 1.452 0 0 1 .051-.14.895.895 0 0 1 .057-.112.513.513 0 0 1 .242-.225.425.425 0 0 1 .158-.03.683.683 0 0 1 .314.088c.004.254.157.4.333.4a.306.306 0 0 0 .23-.098.432.432 0 0 0 .088-.13.29.29 0 0 0 .025-.071h.001a.178.178 0 0 1 .023.01.18.18 0 0 0-.023-.015h-.001a.003.003 0 0 0-.003.001.004.004 0 0 0-.001.003.253.253 0 0 1-.025.07.423.423 0 0 1-.087.13.305.305 0 0 1-.227.097c-.19 0-.325-.163-.329-.397a.004.004 0 0 0-.001-.004.692.692 0 0 0-.317-.088zm1.014.203a.18.18 0 0 1 .03.018.154.154 0 0 0-.019-.014.178.178 0 0 0-.01-.004zm.03.018a.154.154 0 0 1 .009.006.133.133 0 0 1 .013.012l.085-.075a.398.398 0 0 0-.144-.094.51.51 0 0 0-.103-.028.6.6 0 0 0-.048 0 .503.503 0 0 1 .15.032.394.394 0 0 1 .133.084l.006.006-.079.07a.18.18 0 0 0-.021-.013zm-.188-.179a.503.503 0 0 0-.014-.003.62.62 0 0 0-.063.005.6.6 0 0 1 .077-.002zm-.077.002a.6.6 0 0 0-.066.001c-.044.007-.08.017-.141.017-.01 0-.018-.002-.027-.003a.25.25 0 0 0 .027.007.548.548 0 0 0 .111-.012l.03-.006a.62.62 0 0 1 .066-.004zm-.368.094a.003.003 0 0 0-.003.002.004.004 0 0 0 0 .003l.006.04a.293.293 0 0 0 .08.155c.04.042.094.064.15.064.05 0 .108-.008.17-.07a.308.308 0 0 0 .083-.153l.006-.025a.004.004 0 0 0 0-.004.004.004 0 0 0-.004-.002l-.042-.002a.628.628 0 0 0-.039-.002h-.039l-.017.002a.004.004 0 0 0-.004.004l-.002.017a.102.102 0 0 1-.03.068.103.103 0 0 1-.073.03.103.103 0 0 1-.074-.03.092.092 0 0 1-.025-.05l-.003-.013a.004.004 0 0 0-.003-.003l-.013-.001a.646.646 0 0 1-.074-.015zm0 .004.05.015a.613.613 0 0 0 .074.015l.012.001.003.013a.095.095 0 0 0 .025.052.108.108 0 0 0 .077.031.108.108 0 0 0 .077-.031.106.106 0 0 0 .032-.07V2.89l.017-.002a.78.78 0 0 1 .04 0h.001l.038.001.042.003-.007.025a.304.304 0 0 1-.081.151.218.218 0 0 1-.167.07.207.207 0 0 1-.147-.063.29.29 0 0 1-.079-.154zm-1.879.348c.039.094.076.168.11.244.025.054.117.24.232.34a.65.65 0 0 0 .437.166c.146 0 .29-.042.432-.085.14-.041.274-.08.409-.08.175 0 .269.058.345.104-.025.017-.05.035-.08.054a.503.503 0 0 1-.277.094c-.103 0-.287-.054-.448-.119a.412.412 0 0 0-.002.037v.042c0 .09.015.199.117.303a.443.443 0 0 0 .163.104.775.775 0 0 0 .23.042c-.038.036-.075.07-.11.113a.67.67 0 0 0-.04.07c.014-.023.028-.045.045-.066a.936.936 0 0 1 .107-.108l.004-.004a.008.008 0 0 0 .001-.007.008.008 0 0 0-.006-.005.764.764 0 0 1-.229-.041.435.435 0 0 1-.16-.103.395.395 0 0 1-.115-.3v-.04l.001-.026c.178.07.35.115.442.115a.51.51 0 0 0 .28-.096l.08-.053a.007.007 0 0 0 0-.013.595.595 0 0 0-.35-.105c-.134 0-.268.04-.41.081-.14.042-.284.085-.429.085a.65.65 0 0 1-.433-.165c-.12-.105-.212-.3-.23-.337a3.975 3.975 0 0 0-.036-.077 4.333 4.333 0 0 1-.063-.141l.025.02a1.253 1.253 0 0 0 .062.043l-.104-.086zm.104.086c.043.035.09.068.144.1a1.253 1.253 0 0 1-.144-.1zm.144.1a1.156 1.156 0 0 0 .109.056 1.253 1.253 0 0 1-.109-.057zm.109.055c.054.026.113.049.18.067a1.253 1.253 0 0 1-.18-.067zm3.137-.055-.048.149c.03.035.053.067.072.095a.68.68 0 0 1 .103.22.818.818 0 0 1 .004.356 1.353 1.353 0 0 1-.028.105c-.009.028-.03.08-.03.08s-.002-.058-.008-.09c-.005-.032-.01-.068-.018-.095a.514.514 0 0 0-.126-.217.504.504 0 0 0-.125-.09.646.646 0 0 0-.102-.042 1.612 1.612 0 0 1 .058.356.57.57 0 0 1-.083.312.475.475 0 0 1-.067.084.608.608 0 0 1-.069.064.72.72 0 0 1-.068.049.668.668 0 0 0 .035-.07.542.542 0 0 0 .031-.088.444.444 0 0 0-.132-.469.822.822 0 0 0-.037-.035l-.005.098c-.008.115-.03.244-.125.34a.653.653 0 0 1-.05.046c-.018.015-.04.034-.068.05.013-.022.022-.034.04-.077a.346.346 0 0 0 .024-.127.356.356 0 0 0-.02-.113.29.29 0 0 0-.015-.04l-.12.066a.378.378 0 0 1 .016.098.252.252 0 0 1-.04.136.494.494 0 0 1-.073.089 2.133 2.133 0 0 1-.084.078l-.056.05h.05c.054 0 .126-.003.201-.016a.526.526 0 0 0 .292-.144.498.498 0 0 0 .077-.102.438.438 0 0 1-.03.121.807.807 0 0 1-.085.156 1.533 1.533 0 0 1-.084.113l-.03.037.048-.006a1.35 1.35 0 0 0 .172-.036.623.623 0 0 0 .214-.103.62.62 0 0 1-.214.098 1.43 1.43 0 0 1-.172.035l-.038.006.024-.03a1.514 1.514 0 0 0 .084-.112.818.818 0 0 0 .086-.157.442.442 0 0 0 .03-.122.004.004 0 0 0-.003-.004.004.004 0 0 0-.005.001.49.49 0 0 1-.078.102.523.523 0 0 1-.288.142 1.102 1.102 0 0 1-.2.016h-.04l.048-.042c.026-.024.056-.05.084-.079a.504.504 0 0 0 .074-.09.257.257 0 0 0 .032-.209.336.336 0 0 0-.008-.025l.114-.062a.353.353 0 0 1 .034.147.34.34 0 0 1-.025.125c-.012.031-.021.045-.029.06a.504.504 0 0 0-.01.019.004.004 0 0 0 0 .005.004.004 0 0 0 .004 0h.001a.513.513 0 0 0 .067-.05c.022-.018.04-.035.052-.047.097-.098.118-.227.125-.342l.005-.09.031.029c.088.088.197.231.131.464a.553.553 0 0 1-.03.089l-.004.006c-.01.023-.02.043-.031.062-.002.002-.001.005 0 .005a.004.004 0 0 0 .003.002.003.003 0 0 0 .002 0c.025-.017.039-.026.07-.05.022-.017.042-.039.066-.062l.002-.002a.478.478 0 0 0 .068-.085.574.574 0 0 0 .084-.314c0-.076-.01-.158-.034-.256a3.257 3.257 0 0 0-.023-.093.633.633 0 0 1 .094.039.5.5 0 0 1 .124.09.508.508 0 0 1 .142.293l.002.015c.005.032.009.09.009.09a.004.004 0 0 0 .003.004.004.004 0 0 0 .004-.002s.02-.053.028-.081c.009-.028.02-.067.029-.105a.824.824 0 0 0-.005-.359.688.688 0 0 0-.103-.22 1.028 1.028 0 0 0-.07-.095l.044-.14.003.003a1.13 1.13 0 0 1 .124.148.825.825 0 0 1 .032.048.828.828 0 0 0-.03-.05 1.118 1.118 0 0 0-.124-.15.057.057 0 0 0-.006-.006zm-.39 1.388a.62.62 0 0 0 .009-.006.623.623 0 0 1-.008.006zm.009-.006a.623.623 0 0 0 .163-.169.627.627 0 0 0 .078-.18.842.842 0 0 0 .024-.249.62.62 0 0 1 .068.23c.004.04.007.083.007.137v.01c0 .053 0 .101-.004.157l-.005.054.037-.04a1.333 1.333 0 0 0 .054-.068 1.743 1.743 0 0 1-.056.065l-.029.03.004-.04c.003-.057.003-.106.003-.158v-.01c0-.055-.002-.098-.006-.139A.62.62 0 0 0 14 4.26a.495.495 0 0 0-.03-.061.004.004 0 0 0-.003-.003.004.004 0 0 0-.002 0 .004.004 0 0 0-.002.004v.037c0 .079-.008.148-.024.212a.623.623 0 0 1-.077.179.62.62 0 0 1-.161.171zm-.791-1.323a.18.18 0 0 0-.077.017.333.333 0 0 1 .061.011.212.212 0 0 0-.045-.013.173.173 0 0 1 .061-.01c.083 0 .137.048.194.1.059.054.12.11.214.11a.187.187 0 0 0 .042-.006.354.354 0 0 1-.08.033.213.213 0 0 1-.054.008c-.071 0-.109-.032-.154-.077l-.034-.036a1.283 1.283 0 0 0-.035-.037l-.008-.008a.212.212 0 0 0-.02-.012l.025.022.069.073c.043.044.083.079.157.079a.22.22 0 0 0 .056-.008.352.352 0 0 0 .108-.05.19.19 0 0 1-.072.014c-.183 0-.237-.21-.408-.21zm.065.08a.191.191 0 0 0-.08-.052.212.212 0 0 1 .08.052zm-2.153-.047a.004.004 0 0 0-.002.004.722.722 0 0 0 .064.112c.026.036.064.074.088.098a.55.55 0 0 0 .396.164c.132 0 .264-.04.404-.08l.01-.004a1.99 1.99 0 0 1 .28-.069.962.962 0 0 1 .043-.002.913.913 0 0 0-.043-.001c-.1.014-.189.04-.28.067l-.011.004c-.14.042-.272.08-.402.08a.546.546 0 0 1-.394-.163c-.023-.023-.061-.06-.087-.096a.72.72 0 0 1-.064-.11c.022.012.067.044.13.07a1.25 1.25 0 0 0 .534.1c.117 0 .256-.018.416-.055a.718.718 0 0 1 .148-.021l.042.003a.466.466 0 0 0-.042-.007.724.724 0 0 0-.15.022 1.924 1.924 0 0 1-.414.054 1.248 1.248 0 0 1-.531-.1.715.715 0 0 1-.12-.064l-.01-.006a.004.004 0 0 0-.003 0 .004.004 0 0 0-.002 0zm1.272.1a.466.466 0 0 1 .12.02.488.488 0 0 0-.12-.02zm.12.02a.29.29 0 0 1 .044.02.59.59 0 0 1 .07.043.82.82 0 0 0-.068-.048.466.466 0 0 0-.046-.014zm-.109.103a.913.913 0 0 1 .2.003 1.375 1.375 0 0 0-.078-.009h-.037a.962.962 0 0 0-.085.006zm-2.59-.216a3.767 3.767 0 0 0-.003.338 3.763 3.763 0 0 1-.006-.083c0-.086.004-.17.01-.255zm2.525 0c-.147.002-.257.068-.546.068-.033 0-.064 0-.095-.003a1.253 1.253 0 0 0 .095.01c.17 0 .28-.023.37-.042.062-.014.116-.025.176-.025h.005a.665.665 0 0 1 .576.344.007.007 0 0 0 .01.002.503.503 0 0 0 .042-.042c-.014.012-.028.024-.046.036a.965.965 0 0 0-.124-.158.668.668 0 0 0-.463-.19zm2.218.134a.828.828 0 0 1 .069.162.825.825 0 0 0-.07-.162zm-4.54 0a.048.048 0 0 0-.033.007l.002.002-.002-.001a.047.047 0 0 0-.023.038 3.606 3.606 0 0 0 1.87 3.235.047.047 0 0 0 .052-.005v-.002.001a.047.047 0 0 0 .013-.051 11.71 11.71 0 0 0-1.85-3.206.048.048 0 0 0-.03-.017zm7.097.002a.047.047 0 0 0-.023.015 11.717 11.717 0 0 0-1.054 1.53 11.734 11.734 0 0 0-.799 1.678.047.047 0 0 0 .011.05.047.047 0 0 0 .055.007 3.607 3.607 0 0 0 1.87-3.237.047.047 0 0 0-.031-.042h-.001a.047.047 0 0 0-.028-.001zm-4.48.046c.022.015.042.032.065.05a.913.913 0 0 0-.073-.01c.025.004.05.008.071.014h.001a.004.004 0 0 0 .002-.008.82.82 0 0 0-.065-.046zm-2.607.016a11.698 11.698 0 0 1 1.033 1.504 11.725 11.725 0 0 1 .786 1.646 3.528 3.528 0 0 1-.782-.59 3.54 3.54 0 0 1-.863-1.41 3.548 3.548 0 0 0 .389.81 3.544 3.544 0 0 1-.422-.929 3.548 3.548 0 0 0 .033.12 3.54 3.54 0 0 1-.126-.524 3.548 3.548 0 0 0 .006.041 3.544 3.544 0 0 1-.019-.125 3.548 3.548 0 0 0 .008.048 3.54 3.54 0 0 1-.043-.535zm.043.59a3.54 3.54 0 0 0 .005.037 3.548 3.548 0 0 1-.005-.036zm7.036-.59v.057a3.54 3.54 0 0 1-1.036 2.502 3.538 3.538 0 0 1-.784.591 11.674 11.674 0 0 1 1.82-3.15zm-2.117.081a.007.007 0 0 0-.007.004.007.007 0 0 0 .002.009 1.017 1.017 0 0 1 .302.427c.053.138.079.283.079.446 0 .219-.05.417-.148.586a1.014 1.014 0 0 1-.083.125.992.992 0 0 0-.05-.185.503.503 0 0 0-.083-.143.644.644 0 0 1 .077.146c.023.063.04.125.053.199a1.16 1.16 0 0 0 .242-.728c0-.133-.018-.288-.08-.45a1.03 1.03 0 0 0-.28-.408.524.524 0 0 0-.024-.021.325.325 0 0 1 .034.005.422.422 0 0 1 .217.114c.019.02.035.041.051.064a.652.652 0 0 0-.047-.069.425.425 0 0 0-.22-.117.343.343 0 0 0-.035-.004zm.012 1.269a.456.456 0 0 0-.044-.054.503.503 0 0 1 .044.054zm-.375-1.25a.825.825 0 0 1 .036.245c0 .175-.048.34-.144.491-.02.032-.04.057-.058.082a1.333 1.333 0 0 0 .062-.08.908.908 0 0 0 .118-.707.828.828 0 0 0-.014-.031zm2.485.02a3.544 3.544 0 0 1-.034.43 3.548 3.548 0 0 0 .034-.43zm-4.097.105c-.025.02-.05.04-.078.06-.156.111-.284.18-.441.18-.02 0-.04-.002-.062-.004a.683.683 0 0 0 .061.008c.16 0 .287-.07.444-.181a1.33 1.33 0 0 0 .076-.063zm-.853.162a.004.004 0 0 0-.003.002.004.004 0 0 0 0 .004.546.546 0 0 0 .014.036.714.714 0 0 0 .028.051.278.278 0 0 0 .043.058c.08.08.211.118.4.118.133 0 .204-.01.361-.032l.081-.011-.049.02c-.256.107-.341.143-.454.256a.575.575 0 0 0-.18.418.902.902 0 0 0 .015.142l.008.038a.004.004 0 0 0 .002.004h.002a.004.004 0 0 0 .002-.002l.027-.028c.063-.063.127-.116.189-.155a.773.773 0 0 1 .194-.09c.038-.011.076-.02.116-.028l.02-.003c-.213.221-.32.466-.32.73a.825.825 0 0 0 .025.201.895.895 0 0 0 .063.173 1.146 1.146 0 0 0 .03.045c-.008-.016-.02-.031-.027-.047a.825.825 0 0 1-.088-.373c0-.38.228-.635.328-.737l-.032.006a1.164 1.164 0 0 0-.117.029.78.78 0 0 0-.195.09c-.062.04-.126.092-.19.155l-.026.028a.898.898 0 0 1-.022-.178.573.573 0 0 1 .179-.416c.111-.112.197-.148.452-.254a19.567 19.567 0 0 0 .079-.033l-.113.016a2.234 2.234 0 0 1-.36.031c-.188 0-.318-.038-.396-.117a.273.273 0 0 1-.045-.056.564.564 0 0 1-.041-.088 4.462 4.462 0 0 0 .097.036 1.11 1.11 0 0 0 .06.018.683.683 0 0 0 .073.01.86.86 0 0 1-.07-.014 1.18 1.18 0 0 1-.158-.053zm.614 1.947c.031.056.069.11.114.166a1.146 1.146 0 0 1-.114-.166zm.114.166a1.146 1.146 0 0 0 .03.044 1.638 1.638 0 0 0 .067.073l.031.035a.004.004 0 0 0 .005 0c.002 0 .003 0 .003-.003l.001-.043a1.217 1.217 0 0 1 .005-.07c.006-.062.012-.12.025-.191.04-.23.109-.394.202-.486l.007-.008a.616.616 0 0 1 .07-.063l.008.029c.045.165.12.442.12.743 0 .023 0 .219-.046.381a.383.383 0 0 1-.034.088.004.004 0 0 0 0 .005.004.004 0 0 0 .003.001l.04-.006a.788.788 0 0 0 .235-.079.703.703 0 0 0 .04-.03c-.015.009-.028.019-.043.026a.8.8 0 0 1-.233.079l-.04.006a.224.224 0 0 0 .017-.03.383.383 0 0 0 .02-.059c.043-.162.045-.358.045-.383 0-.302-.075-.579-.12-.744l-.01-.035a.6.6 0 0 0-.075.067l-.007.007c-.095.095-.163.259-.204.49-.013.07-.019.13-.025.192a1.358 1.358 0 0 0-.005.07v.043l-.034-.035-.067-.073c-.012-.013-.02-.027-.031-.041zm.811.42a.714.714 0 0 0 .152-.112.703.703 0 0 1-.152.113zM9.544 4.25a3.767 3.767 0 0 0 .025.178 3.763 3.763 0 0 1-.025-.178zm7.214.136a3.544 3.544 0 0 1-.1.416 3.548 3.548 0 0 0 .1-.416zm-4.69.339a.649.649 0 0 0-.05.137.67.67 0 0 1 .05-.137zm2.306.04a.737.737 0 0 0-.066.004l.002.003c.1.152.249.385.249.669a.748.748 0 0 1-.05.272.858.858 0 0 1-.197.296l-.042.039a.898.898 0 0 0 .045-.036c.09-.09.157-.19.198-.298a.75.75 0 0 0 .051-.273c0-.284-.148-.515-.248-.669a.466.466 0 0 1 .058-.002.497.497 0 0 1 .195.035.5.5 0 0 0-.195-.04zm-4.71.057a3.767 3.767 0 0 0 .05.167 3.763 3.763 0 0 1-.05-.167zm4.872.095a.007.007 0 0 0-.007.01l.014.025.015.027a.937.937 0 0 1 .113.461.945.945 0 0 1-.291.656 1.205 1.205 0 0 1-.203.163.873.873 0 0 1-.173.09c.019-.078.027-.162.027-.256a.552.552 0 0 0-.125-.374.378.378 0 0 0-.05-.05.007.007 0 0 0-.004-.002.008.008 0 0 0-.008.007l.004.027.005.03c.01.08.017.15.017.216 0 .122-.017.233-.05.333a.816.816 0 0 1-.129.248.816.816 0 0 1-.48.304 1.192 1.192 0 0 1-.274.033h-.027l.005-.008c.023-.04.05-.084.08-.18a1.33 1.33 0 0 0 .057-.405 2.333 2.333 0 0 0-.069-.538.007.007 0 0 0-.006-.005.007.007 0 0 0-.006.003c-.109.192-.146.512-.146.729v.131a2.74 2.74 0 0 1-.1-.084c-.315-.265-.475-.561-.475-.883 0-.158.04-.316.117-.47a.007.007 0 0 0-.002-.01.007.007 0 0 0-.005 0 .007.007 0 0 0-.003 0c-.106.077-.185.168-.2.184l-.069.083a2.04 2.04 0 0 1-.051-.148.798.798 0 0 1-.04-.245c0-.025.003-.048.006-.073a.67.67 0 0 0-.013.073c0 .094.016.173.04.247.016.053.033.101.057.159l.075-.09c.001-.002.085-.1.199-.183a1.063 1.063 0 0 0-.117.474c0 .362.202.656.476.888 0 0 .067.058.112.093V6.46c0-.177.029-.518.145-.725a2.32 2.32 0 0 1 .068.536c0 .178-.025.31-.056.404-.034.108-.064.15-.09.196.111.004.216-.01.315-.034a.823.823 0 0 0 .484-.305.82.82 0 0 0 .131-.25c.033-.101.048-.213.05-.336 0-.071-.007-.144-.017-.216l-.009-.058a.537.537 0 0 1 .174.42c-.001.064-.005.16-.032.269a.906.906 0 0 0 .187-.097 1.206 1.206 0 0 0 .205-.164c.171-.172.29-.4.291-.66a.945.945 0 0 0-.114-.465l-.027-.052a.4.4 0 0 1 .108.073.503.503 0 0 0-.052-.051.364.364 0 0 0-.055-.03zm2.08.014a3.544 3.544 0 0 1-.16.386 3.548 3.548 0 0 0 .16-.386zm-.22.506a3.544 3.544 0 0 1-.224.365 3.548 3.548 0 0 0 .224-.365zm-2.71.02.006.027a1.792 1.792 0 0 1 .067.463c0 .208-.051.38-.153.513a.647.647 0 0 1-.05.057.703.703 0 0 0 .053-.053.829.829 0 0 0 .155-.517c0-.193-.036-.337-.066-.464l-.006-.02c.279.08.454.333.445.648a.154.154 0 0 1-.006.042.004.004 0 0 0 0 .004.004.004 0 0 0 .003 0 .004.004 0 0 0 .002 0 .898.898 0 0 0 .061-.05l-.027.022-.036.025a.137.137 0 0 0 .008-.043c.008-.32-.17-.576-.456-.654zm2.41.448a3.544 3.544 0 0 1-.277.326 3.548 3.548 0 0 0 .277-.326zm-5.51.5a3.763 3.763 0 0 0 .021.026 3.765 3.765 0 0 0 .027.024 3.77 3.77 0 0 1-.048-.05zm.682.548a3.767 3.767 0 0 0 .24.136 3.765 3.765 0 0 1-.24-.136zm.653.304a.042.042 0 0 0-.02.01v.001a.04.04 0 0 0-.011.042 12.698 12.698 0 0 1 .148.474.054.054 0 0 0 .012.022.055.055 0 0 0 .025.015 4.222 4.222 0 0 0 2.387 0 .055.055 0 0 0 .025-.015.054.054 0 0 0 .012-.022c.053-.183.098-.325.148-.474a.042.042 0 0 0-.011-.042l-.001-.001a.042.042 0 0 0-.042-.008 3.728 3.728 0 0 1-2.65 0 .042.042 0 0 0-.022-.002zm.027.044a3.77 3.77 0 0 0 .505.145 3.76 3.76 0 0 0 .038.007 3.77 3.77 0 0 0 .47.068 3.76 3.76 0 0 0 .09.005 3.77 3.77 0 0 0 .216.013 3.77 3.77 0 0 0 .218-.013 3.76 3.76 0 0 0 .092-.005 3.77 3.77 0 0 0 .46-.067 3.76 3.76 0 0 0 .05-.009 3.77 3.77 0 0 0 .5-.144c-.05.15-.098.303-.142.456a4.158 4.158 0 0 1-1.178.17 4.154 4.154 0 0 1-1.177-.171 11.863 11.863 0 0 0-.142-.455zm2.38.073a3.76 3.76 0 0 1-.182.054 3.76 3.76 0 0 0 .183-.054zm-2.064.016a3.76 3.76 0 0 0 .12.036 3.76 3.76 0 0 1-.12-.036zm1.596.09a3.76 3.76 0 0 1-.201.03 3.76 3.76 0 0 0 .201-.03zm-1.17.002a3.76 3.76 0 0 0 .183.026 3.76 3.76 0 0 1-.182-.026zm.48.044a3.76 3.76 0 0 0 .2 0 3.76 3.76 0 0 1-.102.006 3.76 3.76 0 0 1-.099-.006z"/><path fill="url(#d)" d="M17.008 3.433a.017.017 0 0 0-.004.012 3.715 3.715 0 0 1 .014.325 3.75 3.75 0 0 1-1.098 2.65 3.75 3.75 0 0 1-1.065.748.017.017 0 0 0-.008.008 11.778 11.778 0 0 0-.238.752 4.368 4.368 0 0 1-1.34.211 4.367 4.367 0 0 1-1.342-.21 11.729 11.729 0 0 0-.237-.753.016.016 0 0 0-.008-.008 3.746 3.746 0 0 1-1.065-.747 3.75 3.75 0 0 1-1.099-2.65c0-.11.005-.218.015-.326a.016.016 0 0 0-.004-.012 11.799 11.799 0 0 0-.533-.58A4.37 4.37 0 0 1 10.337.529a11.698 11.698 0 0 0 .77.171.017.017 0 0 0 .012-.002 3.75 3.75 0 0 1 4.3 0c.003.002.007.003.011.002a11.705 11.705 0 0 0 .77-.17 4.37 4.37 0 0 1 1.34 2.323 11.685 11.685 0 0 0-.532.58zM15.65.823a.024.024 0 0 0-.01.041 3.72 3.72 0 0 1 .28.254 3.75 3.75 0 0 1 1.05 2.052.023.023 0 0 0 .04.012 11.781 11.781 0 0 1 .338-.365.038.038 0 0 0 .01-.035A4.208 4.208 0 0 0 16.169.723a.038.038 0 0 0-.035-.01 11.968 11.968 0 0 1-.485.11zm.157.408a3.578 3.578 0 0 0-.405-.348.038.038 0 0 0-.03-.007 11.9 11.9 0 0 1-2.104.187 11.899 11.899 0 0 1-2.104-.187.038.038 0 0 0-.03.007 3.593 3.593 0 0 0-.404.348 3.59 3.59 0 0 0-1.028 2.135.04.04 0 0 0 .008.029 11.886 11.886 0 0 1 1.215 1.728 11.9 11.9 0 0 1 .89 1.916.038.038 0 0 0 .02.022 3.588 3.588 0 0 0 2.867 0 .038.038 0 0 0 .02-.023 11.9 11.9 0 0 1 .89-1.915 11.897 11.897 0 0 1 1.215-1.728.038.038 0 0 0 .008-.03 3.59 3.59 0 0 0-1.028-2.134zM11.409.7a.03.03 0 0 0 .01.055 11.733 11.733 0 0 0 1.85.147 11.729 11.729 0 0 0 1.848-.147.03.03 0 0 0 .01-.055 3.59 3.59 0 0 0-3.718 0zM9.526 3.183a.023.023 0 0 0 .041-.012 3.75 3.75 0 0 1 1.05-2.052 3.707 3.707 0 0 1 .281-.254.023.023 0 0 0 .009-.024.023.023 0 0 0-.019-.017 11.879 11.879 0 0 1-.486-.11.038.038 0 0 0-.035.01l-.074.072A4.207 4.207 0 0 0 9.18 2.783a.038.038 0 0 0 .01.035 11.863 11.863 0 0 1 .338.365zm2.013 3.733a.03.03 0 0 0 .042-.036 11.743 11.743 0 0 0-.797-1.675 11.704 11.704 0 0 0-1.052-1.527.03.03 0 0 0-.033-.01.03.03 0 0 0-.02.028 3.59 3.59 0 0 0 1.05 2.613 3.59 3.59 0 0 0 .81.607zm3.092.39a.023.023 0 0 0-.007-.025.024.024 0 0 0-.025-.005 3.748 3.748 0 0 1-1.33.244 3.748 3.748 0 0 1-1.332-.244.023.023 0 0 0-.03.03c.052.157.101.315.147.475a.038.038 0 0 0 .025.025 4.203 4.203 0 0 0 2.378 0 .038.038 0 0 0 .025-.025c.046-.16.095-.318.148-.475zm2.227-3.61a.03.03 0 0 0-.053-.018 11.7 11.7 0 0 0-1.052 1.527 11.732 11.732 0 0 0-.797 1.675.03.03 0 0 0 .008.033.03.03 0 0 0 .033.004 3.593 3.593 0 0 0 .81-.609 3.59 3.59 0 0 0 1.051-2.537 3.497 3.497 0 0 0 0-.075zm-4.175-1.128a.01.01 0 0 1 .006-.002c1.493 0 1.353 0 1.392.002a.01.01 0 0 1 .01.007.01.01 0 0 1-.004.012 1.215 1.215 0 0 0-.259.223l.061.048a.963.963 0 0 1 .724-.357h.053a.01.01 0 0 1 .008.005.01.01 0 0 1 .002.009l-.017.05c-.054.16-.225.542-.642.642l.016.076a.777.777 0 0 0 .381-.195.01.01 0 0 1 .012-.001c.272.133.45.353.512.637l.013.056a.01.01 0 0 1-.006.012.01.01 0 0 1-.012-.004.227.227 0 0 0-.038-.033.472.472 0 0 0-.252-.067.683.683 0 0 0-.195.03 2.745 2.745 0 0 1 .155.142c.149.148.245.29.302.446.044.118.065.242.065.378a1 1 0 0 1-.095.442.01.01 0 0 1-.01.007.01.01 0 0 1-.01-.009.233.233 0 0 0-.015-.041.49.49 0 0 0-.513-.305c.1.154.244.383.244.663a.806.806 0 0 1-.252.575c-.095.096-.133.112-.178.147a.01.01 0 0 1-.017-.013.152.152 0 0 0 .008-.04c.008-.308-.161-.556-.431-.638.032.13.069.276.069.475 0 .21-.052.386-.156.52a.8.8 0 0 1-.486.281l-.039.006h-.002a.01.01 0 0 1-.008-.005.01.01 0 0 1 0-.011.39.39 0 0 0 .033-.085 1.667 1.667 0 0 0 .046-.38c0-.275-.058-.511-.125-.761a.568.568 0 0 0-.069.063c-.092.093-.16.255-.2.483a2.144 2.144 0 0 0-.032.305.01.01 0 0 1-.006.009.01.01 0 0 1-.012-.003l-.03-.036a1.117 1.117 0 0 1-.307-.504.833.833 0 0 1-.025-.203c0-.258.104-.5.309-.72a.87.87 0 0 0-.497.272l-.025.027a.01.01 0 0 1-.01.003.01.01 0 0 1-.009-.008.95.95 0 0 1-.022-.18.583.583 0 0 1 .182-.424c.112-.112.197-.148.46-.258-.166.022-.243.036-.395.036-.19 0-.323-.039-.403-.12a.35.35 0 0 1-.074-.11.59.59 0 0 1-.015-.037.01.01 0 0 1 .014-.013l.097.035.06.018c.065.016.12.025.173.025.155 0 .283-.07.437-.18.065-.047.12-.092.163-.134.067-.069.075-.1.075-.1-.002-.091-.005-.178-.333-.264a.655.655 0 0 1-.33-.214.156.156 0 0 0-.022-.023.363.363 0 0 0-.238-.08.672.672 0 0 0-.229.046 1.783 1.783 0 0 0-.14.06l-.04.018a.01.01 0 0 1-.01-.002.01.01 0 0 1-.003-.01l.012-.042a1.482 1.482 0 0 1 .108-.254.523.523 0 0 1 .248-.23.433.433 0 0 1 .163-.03.69.69 0 0 1 .319.09.01.01 0 0 1 .005.008c.003.23.136.39.322.39a.294.294 0 0 0 .223-.094.415.415 0 0 0 .085-.129.25.25 0 0 0 .025-.067.01.01 0 0 1 .004-.008.01.01 0 0 1 .008-.001.193.193 0 0 1 .075.043l.07-.062a.456.456 0 0 0-.319-.119.596.596 0 0 0-.104.01c-.085.014-.183.038-.275-.016a.01.01 0 0 1-.006-.007.01.01 0 0 1 .002-.008.615.615 0 0 1 .192-.196zM11.37 3.892a.556.556 0 0 1-.402-.166.638.638 0 0 1-.152-.21.01.01 0 0 1 .002-.013.01.01 0 0 1 .013 0c.03.019.07.045.13.07.152.064.297.1.528.1.258 0 .452-.078.564-.078.164 0 .231.043.354.144a.01.01 0 0 1 .003.013.01.01 0 0 1-.012.005.888.888 0 0 0-.334-.017c-.1.014-.186.04-.279.068-.142.041-.28.084-.415.084zm1.33-.744c-.122 0-.212-.102-.235-.225l-.007-.038a.01.01 0 0 1 .01-.012l.052.014c.028.008.058.012.086.016a.01.01 0 0 1 .008.009c.006.023.009.041.025.058a.098.098 0 0 0 .168-.063l.001-.017a.01.01 0 0 1 .01-.01c.069-.003.081-.002.139.002a.01.01 0 0 1 .008.004.01.01 0 0 1 0 .008c-.014.06-.03.123-.09.183a.228.228 0 0 1-.175.071zm.585 1.787.022-.003a1.433 1.433 0 0 0 .17-.035.613.613 0 0 0 .38-.274.614.614 0 0 0 .076-.177.83.83 0 0 0 .024-.246.01.01 0 0 1 .01-.01c.004 0 .007 0 .009.004a.628.628 0 0 1 .07.234c.004.041.006.085.006.139v.01c0 .053 0 .102-.003.158l-.002.024.016-.018c.047-.052.099-.112.151-.195a.9.9 0 0 0 .118-.7.817.817 0 0 0-.127-.268 1.128 1.128 0 0 0-.118-.142l-.04.127c.028.033.05.065.068.091a.695.695 0 0 1 .105.224.827.827 0 0 1 .004.36 1.377 1.377 0 0 1-.029.105 1.793 1.793 0 0 1-.027.082.01.01 0 0 1-.01.007h-.002a.01.01 0 0 1-.008-.01s-.003-.059-.009-.09l-.002-.014a.503.503 0 0 0-.14-.29.496.496 0 0 0-.123-.09.67.67 0 0 0-.081-.035 1.66 1.66 0 0 1 .053.34.58.58 0 0 1-.083.317.488.488 0 0 1-.07.086l-.002.003a.678.678 0 0 1-.137.112.01.01 0 0 1-.015-.015.506.506 0 0 0 .066-.155c.065-.23-.042-.372-.13-.458l-.02-.02-.004.076c-.008.116-.03.248-.128.346a.752.752 0 0 1-.051.048c-.02.015-.04.034-.069.05a.01.01 0 0 1-.012 0 .01.01 0 0 1-.003-.013.404.404 0 0 0 .04-.077.333.333 0 0 0 .024-.123.33.33 0 0 0-.02-.11.283.283 0 0 0-.01-.028l-.104.056.006.02a.263.263 0 0 1-.032.214.5.5 0 0 1-.075.091c-.028.028-.058.055-.084.079l-.035.031h.022c.053 0 .125-.003.2-.016a.517.517 0 0 0 .285-.14.483.483 0 0 0 .077-.1.01.01 0 0 1 .019.006.447.447 0 0 1-.03.124.816.816 0 0 1-.088.158 2.5 2.5 0 0 1-.083.113zm-.005-1.224a.373.373 0 0 0 .044-.015h-.005c-.097 0-.159-.057-.219-.11-.056-.052-.109-.1-.189-.1a.168.168 0 0 0-.033.002.22.22 0 0 1 .123.075l.007.008.035.037.035.035c.044.045.08.075.148.075a.212.212 0 0 0 .054-.007zm.8-.71a.484.484 0 0 0 .233-.135.543.543 0 0 0 .122-.165c-.19.032-.362.187-.395.217zm-.87 3.818a.803.803 0 0 0 .473-.298.803.803 0 0 0 .126-.244c.088-.27.032-.54.024-.6a.02.02 0 0 1 .01-.021.02.02 0 0 1 .022.002c.02.016.034.031.053.052a.564.564 0 0 1 .127.383c0 .085-.007.163-.022.236.075-.031.228-.122.349-.242a.935.935 0 0 0 .286-.647c.003-.24-.075-.378-.14-.507a.02.02 0 0 1 .026-.028.497.497 0 0 1 .254.297c.02.054.034.104.045.158a1.103 1.103 0 0 0 .21-.68c0-.325-.114-.633-.352-.843a.45.45 0 0 0-.023-.02.02.02 0 0 1 .012-.036c.008 0 .03.004.038.006a.438.438 0 0 1 .226.119.681.681 0 0 1 .117.167c-.008-.485-.15-.825-.574-1.045a.02.02 0 0 1-.006-.031c.158-.18.227-.38.27-.554a.638.638 0 0 0-.14-.015c-.128 0-.272.035-.424.107a.02.02 0 0 1-.024-.005.02.02 0 0 1-.004-.02l.462-1.14a.287.287 0 0 0-.264.193.228.228 0 0 0 .022.171.02.02 0 0 1-.033.024.21.21 0 0 0-.153-.068.207.207 0 0 0-.203.153c-.029.133.029.239.131.272a.18.18 0 0 0 .105.008.02.02 0 0 1 .02.008.02.02 0 0 1 0 .022c-.086.144-.182.234-.39.234-.19 0-.326-.185-.422-.346a.02.02 0 0 1 .003-.023.02.02 0 0 1 .023-.005.4.4 0 0 0 .129.041.214.214 0 0 0 .211-.215.213.213 0 0 0-.212-.215.208.208 0 0 0-.107.03.02.02 0 0 1-.025-.031.228.228 0 0 0 .067-.159.213.213 0 0 0-.21-.215.213.213 0 0 0-.212.216.217.217 0 0 0 .065.155.02.02 0 0 1-.024.032.215.215 0 0 0-.107-.029.213.213 0 0 0-.21.216.213.213 0 0 0 .336.175.02.02 0 0 1 .03.027c-.103.172-.233.347-.422.347-.21 0-.31-.094-.394-.235a.02.02 0 0 1 .001-.022.02.02 0 0 1 .02-.008.175.175 0 0 0 .104-.008c.103-.033.16-.14.132-.27a.207.207 0 0 0-.261-.147.208.208 0 0 0-.095.059.02.02 0 0 1-.033-.024.23.23 0 0 0 .021-.17.288.288 0 0 0-.264-.193l.496 1.218a.02.02 0 0 1-.003.021.673.673 0 0 0-.09.114.02.02 0 0 1-.026.009.75.75 0 0 0-.33-.085.522.522 0 0 0-.195.036.538.538 0 0 0-.18.121c-.123.123-.217.328-.279.61a2.713 2.713 0 0 0-.02.098 2.777 2.777 0 0 1 .113-.08 1.213 1.213 0 0 1 .122-.071.774.774 0 0 1 .326-.097c.072 0 .138.021.182.058a.19.19 0 0 1 .014.015c.04.046.162.186.377.241.233.062.256.104.261.153a.02.02 0 0 1-.002.012.517.517 0 0 1-.138.137.02.02 0 0 1-.028-.006.652.652 0 0 0-.566-.339c-.15 0-.258.068-.55.068a1.263 1.263 0 0 1-.856-.305c.074.165.17.382.305.5a.637.637 0 0 0 .425.162c.283 0 .562-.167.839-.167.18 0 .277.061.356.109a.02.02 0 0 1 0 .033c-.116.082-.227.152-.368.152-.108 0-.292-.057-.428-.11-.003.102-.005.22.11.339a.431.431 0 0 0 .155.1c.06.022.134.035.225.04a.02.02 0 0 1 .018.013.02.02 0 0 1-.005.022.98.98 0 0 0-.11.11.648.648 0 0 0-.15.417c0 .087.01.182.083.368l.054-.066a1.297 1.297 0 0 1 .201-.185.02.02 0 0 1 .03.025 1.04 1.04 0 0 0-.115.465c0 .318.159.61.47.873l.078.066v-.103c0-.218.04-.542.147-.734a.02.02 0 0 1 .038.004 2.3 2.3 0 0 1 .04.202c.046.3.052.658-.103.919.088 0 .175-.009.276-.033z" style="fill:url(#d);stroke-width:.05961"/></svg>